<?xml version="1.0" standalone="no"?><!DOCTYPE svg PUBLIC "-//W3C//DTD SVG 1.1//EN" "http://www.w3.org/Graphics/SVG/1.1/DTD/svg11.dtd"><svg t="1515662957589" class="icon" style="" viewBox="0 0 1024 1024" version="1.1" xmlns="http://www.w3.org/2000/svg" p-id="2229" xmlns:xlink="http://www.w3.org/1999/xlink" width="200" height="200"><defs><style type="text/css"></style></defs><path d="M1008.369322 984.192477C1008.862642 986.391446 1009.131794 988.675431 1009.131794 991.023083 1009.131794 997.641722 1007.055583 1003.772378 1003.528387 1008.8127 998.015714 1017.481245 988.332319 1023.237528 977.298585 1023.237528 974.405385 1023.237528 971.607875 1022.833418 968.95066 1022.09382L55.04934 1022.09382C52.392125 1022.833418 49.594615 1023.237528 46.701415 1023.237528 35.6673 1023.237528 25.983905 1017.480864 20.471232 1008.811937 16.944036 1003.771997 14.868206 997.641722 14.868206 991.023083 14.868206 988.675431 15.136977 986.391827 15.630678 984.192858L15.630678 312.422934C15.630678 295.263118 29.541599 281.352197 46.701415 281.352197 63.86123 281.352197 77.772152 295.263118 77.772152 312.422934L77.772152 959.952345 946.227848 959.952345 946.227848 62.903946 328.816083 62.903946C311.656268 62.903946 297.745346 48.993025 297.745346 31.833209 297.745346 14.673394 311.656268 0.762472 328.816083 0.762472L978.061057 0.762472C995.220873 0.762472 1009.131794 14.673394 1009.131794 31.833209 1009.131794 34.180861 1008.862642 36.464846 1008.369322 38.663434L1008.369322 984.192477ZM201.077993 312.554079 839.267121 312.554079 839.267121 370.501957 201.077993 370.501957 201.077993 312.554079ZM201.077993 469.789927 839.267121 469.789927 839.267121 527.737805 201.077993 527.737805 201.077993 469.789927ZM839.267121 828.425912 201.077993 828.425912 201.077993 770.478034 839.267121 770.478034 839.267121 828.425912ZM201.077993 617.983619 839.267121 617.983619 839.267121 675.931497 201.077993 675.931497 201.077993 617.983619ZM266.602937 173.771961 190.165111 173.771961 190.165111 250.209787C190.165111 267.369984 176.25457 281.280524 159.094374 281.280524 141.934558 281.280524 128.023637 267.369984 128.023637 250.209787L128.023637 173.771961 51.585811 173.771961C34.425996 173.771961 20.515074 159.861421 20.515074 142.701224 20.515074 125.541409 34.425996 111.630487 51.585811 111.630487L128.023637 111.630487 128.023637 35.192661C128.023637 18.032846 141.934558 4.121924 159.094374 4.121924 176.25457 4.121924 190.165111 18.032846 190.165111 35.192661L190.165111 111.630487 266.602937 111.630487C283.763133 111.630487 297.673674 125.541409 297.673674 142.701224 297.673674 159.861421 283.763133 173.771961 266.602937 173.771961Z" p-id="2230" fill="#1296db"></path></svg>